<?xml version="1.0" encoding="utf-8"?>
<!-- Generator: Adobe Illustrator 24.0.3, SVG Export Plug-In . SVG Version: 6.00 Build 0)  -->
<svg version="1.1" id="Capa_1" xmlns="http://www.w3.org/2000/svg" xmlns:xlink="http://www.w3.org/1999/xlink" x="0px" y="0px"
	 viewBox="0 0 513.8 230" style="enable-background:new 0 0 513.8 230;" xml:space="preserve">
<style type="text/css">
	.st0{fill:#484546;}
</style>
<g>
	<g>
		<path class="st0" d="M12.6,230c-3.2,0-6.2-1.1-8.5-3.2C1.5,224.4,0,221,0,217.4V40.8c0-7,5.5-13.1,12.5-13.8L226,6.1
			c3.6-0.3,7.2,0.8,9.8,3.2c2.6,2.4,4.1,5.8,4.1,9.4v6.9L499.9,0.1c3.6-0.3,7.2,0.8,9.8,3.2c2.6,2.4,4.1,5.8,4.1,9.4v176.6
			c0,7-5.5,13.1-12.5,13.8L228,229.8c-3.6,0.3-7.2-0.8-9.8-3.2c-2.6-2.4-4.1-5.8-4.1-9.4v-6.9L13.9,229.9C13.5,230,13,230,12.6,230z
			 M13.9,40.8C13.9,40.8,13.9,40.9,13.9,40.8l0,175.1l207.3-20.3c3.7-0.4,6.8,2.5,6.8,6.2v14l271.9-26.6c-0.1,0,0-0.1,0-0.1l0-175.1
			L232.7,40.2c-3.6,0.4-6.7-2.5-6.7-6.1V20.1L13.9,40.8C13.9,40.8,13.9,40.8,13.9,40.8z M501.3,13.9
			C501.3,13.9,501.3,13.9,501.3,13.9L501.3,13.9z"/>
	</g>
	<g>
		<path class="st0" d="M47.6,119.7c0-44.2,0-61.7,23.8-64c23.8-2.3,23.8,15.1,23.8,59.4v66.6l-15.9,1.6v-36.5l-15.9,1.6v36.5
			l-15.9,1.6V119.7z M79.3,134.1v-17.4c0-41.2,0-49-7.9-48.2c-7.9,0.8-7.9,8.5-7.9,49.8v17.4L79.3,134.1z"/>
	</g>
	<g>
		<path class="st0" d="M111,53.3l15.9-1.6v111l20.6-2v15.9l-36.5,3.6V53.3z"/>
	</g>
	<g>
		<path class="st0" d="M157,109c0-44.2,0-61.7,23.8-64c23.8-2.3,23.8,15.1,23.8,59.4v40.7l-15.9,1.6v-15.6l-15.9,1.6v15.6l-15.9,1.6
			V109z M188.7,118.4v-12.4c0-41.2,0-49-7.9-48.2c-7.9,0.8-7.9,8.5-7.9,49.8v12.4L188.7,118.4z"/>
	</g>
	<g>
		<path class="st0" d="M224.6,56l24.1-2.4c16.3-1.6,21.7,8,21.7,26.3v3.3c0,10.9-2.5,19.8-5.4,26.2v0.6c5.9,4.3,9.5,13.7,10.3,30.4
			v5.1c-1.3,22.5-7.1,33-23.5,34.6l-27.3,2.7V56z M248.7,107.6c4.4-0.4,7.6-6,7.6-22.9v-3.3c0-12.2-2.9-15.4-7.6-15l-8.2,0.8v41.2
			L248.7,107.6z M251.8,164.4c4.8-0.5,8.1-4.8,8.7-17.3v-5.1c-0.6-18.8-4-22.4-8.7-22l-11.4,1.1v44.4L251.8,164.4z"/>
	</g>
	<g>
		<path class="st0" d="M427.4,99.2c0-44.2,0-61.7,23.8-64C475,32.9,475,50.3,475,94.6v66.6l-15.9,1.6v-36.5l-15.9,1.6v36.5
			l-15.9,1.6V99.2z M459.1,113.6V96.1c0-41.2,0-49-7.9-48.2c-7.9,0.8-7.9,8.5-7.9,49.8v17.4L459.1,113.6z"/>
	</g>
	<g>
		<path class="st0" d="M349.8,45.8l14.3-1.4l16.7,77.7l1.6-0.2L399,41l14.3-1.4v126.9l-15.9,1.6v-63.4l-11.3,64.5l-9.5,0.9
			l-10.9-62.4v63.4l-15.9,1.6V45.8z"/>
	</g>
	<g>
		<g>
			<path class="st0" d="M204.7,154.8v15.9l-47.6,4.7v-15.9L204.7,154.8z"/>
		</g>
	</g>
	<g>
		<path class="st0" d="M287,112c0-44.2,0-61.7,23.8-64c23.8-2.3,23.8,15.1,23.8,59.4v40.7l-15.9,1.6v-15.6l-15.9,1.6v15.6l-15.9,1.6
			V112z M318.7,121.4v-12.4c0-41.2,0-49-7.9-48.2c-7.9,0.8-7.9,8.5-7.9,49.8v12.4L318.7,121.4z"/>
	</g>
	<g>
		<g>
			<path class="st0" d="M334.7,157.8v15.9l-47.6,4.7v-15.9L334.7,157.8z"/>
		</g>
	</g>
</g>
</svg>
